<?xml version="1.0" encoding="UTF-8"?>
<svg width="30px" height="30px" viewBox="0 0 30 30" version="1.1" xmlns="http://www.w3.org/2000/svg" xmlns:xlink="http://www.w3.org/1999/xlink">
    <!-- Generator: Sketch 50.2 (55047) - http://www.bohemiancoding.com/sketch -->
    <title>Logo</title>
    <desc>Created with Sketch.</desc>
    <defs></defs>
    <g id="Page-1" stroke="none" stroke-width="1" fill="none" fill-rule="evenodd">
        <g id="Icons" transform="translate(-28.000000, -61.000000)" fill="#121212">
            <path d="M41.2742791,61.0462396 C41.2742791,61.0841561 41.2202733,61.0924793 40.9729714,61.0924793 C40.7671175,61.0924793 40.6524033,61.1058888 40.6108781,61.1349427 C40.5741295,61.1606057 40.4362259,61.1826466 40.2618819,61.1906615 C40.0325305,61.2012966 39.9676619,61.2147061 39.9444725,61.2561676 C39.9217454,61.2967044 39.8711294,61.3082643 39.7165079,61.3082643 C39.5603456,61.3082643 39.5177418,61.3182058 39.5177418,61.3545039 C39.5177418,61.3904938 39.4765248,61.4007436 39.3318416,61.4007436 C39.1950937,61.4007436 39.141319,61.41292 39.128299,61.4469832 C39.1159725,61.4791197 39.0658187,61.4932228 38.9638933,61.4932228 C38.863971,61.4932228 38.7923227,61.5128747 38.7389333,61.5548757 C38.6863912,61.5961831 38.6138955,61.6165285 38.5190579,61.6165285 C38.4138198,61.6165285 38.3775334,61.6283967 38.3775334,61.6627682 C38.3775334,61.6969085 38.3417863,61.7090078 38.2404002,61.7090078 C38.1580433,61.7090078 38.0934058,61.7256541 38.0786139,61.7505464 C38.0650547,61.7734351 37.9992616,61.8007164 37.9324669,61.8112745 C37.8656723,61.8217555 37.7991088,61.8515801 37.784548,61.8775513 C37.7700643,61.9035226 37.7168289,61.9247928 37.6662899,61.9247928 C37.6129774,61.9247928 37.5669069,61.9442135 37.5566604,61.9710325 C37.5451813,62.000857 37.4975699,62.0172721 37.4226859,62.0172721 C37.3570469,62.0172721 37.289867,62.0373863 37.2681414,62.0635117 C37.2470322,62.0889435 37.1986504,62.1097514 37.1606691,62.1097514 C37.1226878,62.1097514 37.0562784,62.1374952 37.0132124,62.1714042 C36.9700694,62.2053133 36.907512,62.2330571 36.8741532,62.2330571 C36.8407944,62.2330571 36.7961876,62.2538649 36.7750783,62.2792967 C36.7539691,62.3047285 36.7116735,62.3255364 36.6810882,62.3255364 C36.6504258,62.3255364 36.6044323,62.3464983 36.5787776,62.3721613 C36.5531229,62.3978243 36.4897181,62.4273406 36.4378694,62.4376675 C36.3860207,62.4480714 36.3436481,62.475584 36.3436481,62.498935 C36.3436481,62.5255999 36.3089796,62.5413214 36.2501973,62.5413214 C36.1956521,62.5413214 36.1494275,62.5605108 36.139104,62.587561 C36.1289345,62.6140717 36.082864,62.6338006 36.0312464,62.6338006 C35.9812467,62.6338006 35.9335583,62.6535296 35.9240822,62.6781907 C35.9147603,62.7025436 35.8666096,62.7313663 35.8172262,62.7422326 C35.7677658,62.7530989 35.7273192,62.7816904 35.7273192,62.8058121 C35.7273192,62.8298567 35.7010482,62.8495856 35.6689991,62.8495856 C35.636873,62.8495856 35.6026667,62.8703935 35.5928825,62.8958253 C35.5831753,62.9212571 35.5400323,62.9420649 35.4971974,62.9420649 C35.4511269,62.9420649 35.4191548,62.959636 35.4191548,62.9848366 C35.4191548,63.0094207 35.3730842,63.0363167 35.3112972,63.0479537 C35.2467368,63.0600531 35.2034397,63.0861785 35.2034397,63.1129975 C35.2034397,63.1376586 35.1757049,63.1578499 35.1418068,63.1578499 C35.1076006,63.1578499 35.0801739,63.1784266 35.0801739,63.2040896 C35.0801739,63.234916 35.0493575,63.2503292 34.9877246,63.2503292 C34.9260917,63.2503292 34.8952753,63.2657424 34.8952753,63.2965688 C34.8952753,63.3220006 34.8744742,63.3428085 34.8490506,63.3428085 C34.823627,63.3428085 34.7750911,63.3705523 34.741193,63.4044613 C34.7072949,63.4383704 34.658759,63.4661142 34.6333355,63.4661142 C34.6079119,63.4661142 34.5871108,63.486922 34.5871108,63.5123538 C34.5871108,63.5410995 34.5580663,63.5585935 34.5103008,63.5585935 C34.4669267,63.5585935 34.41685,63.5854125 34.3950473,63.6202463 C34.373861,63.6541554 34.3391155,63.6818992 34.3177751,63.6818992 C34.2964347,63.6818992 34.2789464,63.702707 34.2789464,63.7281388 C34.2789464,63.7535706 34.257683,63.7743785 34.2317202,63.7743785 C34.2058344,63.7743785 34.1765587,63.7951863 34.1668516,63.8206181 C34.1570673,63.8460499 34.1230922,63.8668577 34.0912742,63.8668577 C34.0595333,63.8668577 33.9835708,63.9154094 33.9224772,63.9747502 C33.8613836,64.0340911 33.7987491,64.0826427 33.7832639,64.0826427 C33.7677786,64.0826427 33.7550668,64.1034506 33.7550668,64.1288824 C33.7550668,64.1543142 33.7342657,64.1768945 33.7088422,64.1789753 C33.6220168,64.1862195 33.6119244,64.1906123 33.5580727,64.2444815 C33.5284119,64.2741519 33.4912781,64.2984277 33.4754846,64.2984277 C33.4597683,64.2984277 33.4469024,64.3192356 33.4469024,64.3446674 C33.4469024,64.3700992 33.4261013,64.390907 33.4006777,64.390907 C33.3752542,64.390907 33.3544531,64.4117148 33.3544531,64.4371466 C33.3544531,64.4625784 33.3390448,64.4833863 33.3202468,64.4833863 C33.2729436,64.4833863 33.1398936,64.6136279 33.1392772,64.6606382 C33.1389691,64.6818314 33.1243313,64.6991713 33.1066888,64.6991713 C33.0660111,64.6991713 32.8848105,64.8254055 32.852145,64.8764232 C32.8385858,64.8976164 32.8073841,64.9149563 32.782808,64.9149563 C32.7582319,64.9149563 32.7381242,64.9357641 32.7381242,64.9611959 C32.7381242,64.9866277 32.7173231,65.0074355 32.6918995,65.0074355 C32.6664759,65.0074355 32.6456748,65.0282434 32.6456748,65.0536752 C32.6456748,65.079107 32.6302666,65.0999148 32.6114686,65.0999148 C32.5641654,65.0999148 32.4311154,65.2301565 32.430499,65.2771668 C32.4301909,65.29836 32.4139352,65.3156998 32.3943667,65.3156998 C32.3523793,65.3156998 32.1217953,65.551522 32.1217953,65.5944478 C32.1217953,65.6107087 32.1009942,65.6239641 32.0755706,65.6239641 C32.0501471,65.6239641 32.029346,65.6423829 32.029346,65.6648091 C32.029346,65.6873124 31.9816575,65.7454973 31.9233374,65.794126 C31.8650943,65.8427547 31.8235692,65.8926164 31.8311962,65.9048699 C31.8388233,65.9172005 31.8102411,65.9546546 31.7677144,65.9881783 C31.7251877,66.021625 31.6903651,66.0628554 31.6903651,66.0798099 C31.6903651,66.0967644 31.669564,66.1185741 31.6441404,66.1283615 C31.6187169,66.1380718 31.5979158,66.1673569 31.5979158,66.1932511 C31.5979158,66.2192224 31.5771147,66.2404926 31.5516911,66.2404926 C31.5262675,66.2404926 31.5054664,66.2613005 31.5054664,66.2867323 C31.5054664,66.3121641 31.4922154,66.3329719 31.4760367,66.3329719 C31.4396733,66.3329719 31.2897513,66.4802452 31.2897513,66.5160038 C31.2897513,66.5304152 31.2689502,66.5501441 31.2435266,66.5599315 C31.2181031,66.5696418 31.197302,66.6111804 31.197302,66.6521025 C31.197302,66.7005771 31.1758075,66.7321742 31.1356691,66.7426551 C31.101771,66.7515177 31.0740362,66.7808799 31.0740362,66.8079301 C31.0740362,66.8349032 31.0532351,66.8570212 31.0278115,66.8570212 C31.002388,66.8570212 30.9815869,66.8782914 30.9815869,66.9042627 C30.9815869,66.9301569 30.9607858,66.959442 30.9353622,66.9691523 C30.9090142,66.979325 30.8891375,67.0252564 30.8891375,67.07612 C30.8891375,67.125134 30.8737293,67.1652855 30.8549313,67.1652855 C30.814947,67.1652855 30.6747321,67.2923674 30.6739617,67.3293591 C30.6736536,67.343231 30.6526213,67.3754446 30.6271978,67.4008764 C30.6017742,67.4263082 30.5809731,67.473858 30.5809731,67.5066111 C30.5809731,67.5392871 30.5624832,67.566029 30.5398332,67.566029 C30.5171831,67.566029 30.4651803,67.634849 30.4242715,67.7189281 C30.3833627,67.8030842 30.3325155,67.8724437 30.3113292,67.8730602 C30.2894495,67.8737538 30.2728087,67.9137511 30.2728087,67.9656936 C30.2728087,68.0254969 30.2515453,68.0684998 30.2111758,68.0900783 C30.1772777,68.1081888 30.1495429,68.1374739 30.1495429,68.155045 C30.1495429,68.172616 30.1287418,68.2077582 30.1033182,68.23319 C30.0778947,68.2586218 30.0570936,68.3061715 30.0570936,68.3389246 C30.0570936,68.3716006 30.0362925,68.3983426 30.0108689,68.3983426 C29.9832882,68.3983426 29.9646442,68.4267029 29.9646442,68.4685497 C29.9646442,68.5071598 29.9403763,68.562185 29.9107155,68.5907765 C29.7773573,68.7193998 29.7489291,68.7632504 29.7489291,68.8402394 C29.7489291,68.8927214 29.7322112,68.9223918 29.7027045,68.9223918 C29.671811,68.9223918 29.6564798,68.9532953 29.6564798,69.015873 C29.6564798,69.0678155 29.6372195,69.1166754 29.6130286,69.1259233 C29.5891459,69.1351712 29.5607177,69.17802 29.5498549,69.221177 C29.5390691,69.264411 29.5100246,69.3198986 29.4854485,69.3444827 C29.4608724,69.3690667 29.4407647,69.4213946 29.4407647,69.4607754 C29.4407647,69.5001561 29.4199636,69.5403075 29.39454,69.5500949 C29.3674986,69.5604218 29.3483153,69.6066614 29.3483153,69.6612242 C29.3483153,69.7126273 29.3359888,69.7547054 29.3208117,69.7547054 C29.3057116,69.7547054 29.2716594,69.8090369 29.2450803,69.8753908 C29.2185781,69.9417447 29.1823688,70.0050159 29.1647264,70.0159593 C29.147084,70.0268256 29.1326002,70.0835463 29.1326002,70.1418853 C29.1326002,70.2155604 29.1185017,70.2479282 29.0863756,70.2479282 C29.0521693,70.2479282 29.0401509,70.2837639 29.0401509,70.3855682 C29.0401509,70.4916111 29.0260524,70.5307607 28.978518,70.5561925 C28.9417694,70.5758443 28.9168851,70.6207738 28.9168851,70.6673988 C28.9168851,70.7104017 28.896084,70.7663516 28.8706605,70.7917834 C28.8452369,70.8172152 28.8244358,70.8910445 28.8244358,70.9558571 C28.8244358,71.0321525 28.8081031,71.0799335 28.7782111,71.0914163 C28.7463932,71.1035927 28.7319865,71.1533004 28.7319865,71.2506348 C28.7319865,71.3284715 28.7196599,71.3845756 28.7046369,71.3752506 C28.6604153,71.3478922 28.6208162,71.425806 28.6117253,71.5580513 C28.6071028,71.6258695 28.5836823,71.7032438 28.5597996,71.7299857 C28.5344531,71.7583461 28.5162714,71.8439665 28.5162714,71.9348274 C28.5162714,72.0451089 28.5027121,72.0961266 28.4700467,72.1086884 C28.4360716,72.1217126 28.423822,72.1753506 28.423822,72.3108327 C28.423822,72.4454671 28.4108791,72.5024189 28.3759795,72.5219937 C28.345086,72.5392565 28.3213574,72.6136253 28.3092619,72.731151 C28.2989384,72.8314911 28.271897,72.9320623 28.2492469,72.9547197 C28.221435,72.9825406 28.2077988,73.0824952 28.2071054,73.2634464 C28.206412,73.449638 28.1923905,73.5491303 28.1608807,73.590746 C28.1282923,73.63398 28.1156576,73.7348595 28.1156576,73.9529565 C28.1156576,74.1898576 28.1064127,74.2553637 28.0730539,74.2553637 C28.0006352,74.2553637 27.9958587,74.3760492 28.0018679,76.0534692 C28.0073378,77.564966 28.0116521,77.6848808 28.0617288,77.7214872 C28.1065667,77.7543174 28.1156576,77.8105756 28.1156576,78.055954 C28.1156576,78.2769794 28.1272138,78.3624457 28.1618823,78.3971254 C28.1965508,78.4318052 28.2081069,78.5173485 28.2081069,78.7393759 C28.2081069,78.974042 28.21766,79.0390858 28.2543316,79.0531118 C28.284994,79.0649029 28.3007103,79.1138399 28.3009415,79.1986126 C28.3015578,79.3710864 28.3298319,79.4650299 28.3812183,79.4650299 C28.4122659,79.4650299 28.423822,79.5104219 28.423822,79.6320321 C28.423822,79.8172989 28.4468573,79.9050772 28.4886906,79.879183 C28.5038677,79.8697809 28.5162714,79.9452286 28.5162714,80.0467246 C28.5162714,80.169645 28.5316796,80.2467111 28.562496,80.2775375 C28.5879196,80.3029693 28.6087207,80.3652387 28.6087207,80.4159482 C28.6087207,80.5390997 28.6369177,80.6056078 28.6890746,80.6056078 C28.7200451,80.6056078 28.7319865,80.6485336 28.7319865,80.7597399 C28.7319865,80.8761867 28.7433115,80.913872 28.7782111,80.913872 C28.8099521,80.913872 28.8244358,80.9457774 28.8244358,81.0159075 C28.8244358,81.0719345 28.8447747,81.144762 28.8696589,81.1777462 C28.8945432,81.2106535 28.9153443,81.2752348 28.9158836,81.3212433 C28.9164999,81.3726463 28.9406138,81.4176529 28.978518,81.4379213 C29.0260524,81.4633531 29.0401509,81.5025027 29.0401509,81.6085456 C29.0401509,81.7103498 29.0521693,81.7461856 29.0863756,81.7461856 C29.1164987,81.7461856 29.1326002,81.7763955 29.1326002,81.8328078 C29.1326002,81.8803576 29.1529391,81.9462491 29.1778234,81.9792334 C29.2027077,82.0121406 29.2235088,82.0633124 29.224048,82.0929829 C29.2245873,82.1226533 29.2527844,82.1746729 29.2866825,82.208582 C29.3205806,82.242491 29.3483153,82.305377 29.3483153,82.3483028 C29.3483153,82.3911515 29.3691164,82.4343085 29.39454,82.4440188 C29.4199636,82.4538062 29.4407647,82.493264 29.4407647,82.5317971 C29.4407647,82.570253 29.4606413,82.6183423 29.4849863,82.6385336 C29.5093313,82.6587249 29.5381446,82.7159079 29.5490845,82.7656155 C29.5600243,82.8152461 29.5886066,82.855937 29.6127204,82.855937 C29.6422272,82.855937 29.6564798,82.8911561 29.6564798,82.9638294 C29.6564798,83.0392001 29.6704242,83.0717219 29.7027045,83.0717219 C29.7335979,83.0717219 29.7489291,83.1026254 29.7489291,83.1652031 C29.7489291,83.2197659 29.7681124,83.2660055 29.7951538,83.2763324 C29.8205774,83.2861197 29.8413785,83.3100873 29.8413785,83.3296621 C29.8413785,83.3491598 29.8691133,83.3824523 29.9030113,83.4036455 C29.9369094,83.4248387 29.9646442,83.4702306 29.9646442,83.504525 C29.9646442,83.5388194 29.9854453,83.5748863 30.0108689,83.5845966 C30.0362925,83.594384 30.0570936,83.6324547 30.0570936,83.6692922 C30.0570936,83.7060528 30.0813615,83.7596137 30.1110223,83.7882052 C30.2411448,83.9137458 30.2728087,83.959523 30.2728087,84.0222548 C30.2728087,84.0610191 30.292146,84.088994 30.3190333,84.088994 C30.3474615,84.088994 30.365258,84.1178938 30.365258,84.1638252 C30.365258,84.2050555 30.3833627,84.2570751 30.4054735,84.2794243 C30.4276613,84.3018505 30.4549339,84.3444681 30.4661819,84.3741385 C30.4774299,84.4038089 30.5078611,84.4280847 30.5337469,84.4280847 C30.5637159,84.4280847 30.5809731,84.4565992 30.5809731,84.5061527 C30.5809731,84.5490014 30.6017742,84.5921584 30.6271978,84.6018687 C30.6526213,84.6116561 30.6734224,84.631385 30.6734224,84.6457964 C30.6734224,84.681555 30.8233444,84.8288283 30.8597078,84.8288283 C30.8758865,84.8288283 30.8891375,84.8555702 30.8891375,84.8882462 C30.8891375,84.9209993 30.9099386,84.9685491 30.9353622,84.9939809 C30.9607858,85.0194127 30.981818,85.0516263 30.9821262,85.0654982 C30.9828966,85.1024899 31.1231114,85.2295719 31.1630957,85.2295719 C31.1818938,85.2295719 31.197302,85.2697233 31.197302,85.3187373 C31.197302,85.3696009 31.2171786,85.4155323 31.2435266,85.425705 C31.2689502,85.4354153 31.2897513,85.4647004 31.2897513,85.4905946 C31.2897513,85.5165659 31.3105524,85.5378361 31.335976,85.5378361 C31.3613995,85.5378361 31.3822006,85.5599541 31.3822006,85.5869272 C31.3822006,85.6139774 31.4099354,85.6433396 31.4438335,85.6522022 C31.4777316,85.6610648 31.5054664,85.6874984 31.5054664,85.7110036 C31.5054664,85.7344317 31.5262675,85.7536211 31.5516911,85.7536211 C31.5771147,85.7536211 31.5979158,85.774429 31.5979158,85.7998608 C31.5979158,85.8252926 31.6154041,85.8461004 31.6368215,85.8461004 C31.6582389,85.8461004 31.6899799,85.8773122 31.7073141,85.9154599 C31.7246484,85.9536076 31.7566975,85.9810431 31.7785001,85.9763421 C31.8003798,85.9717181 31.8107033,85.9800412 31.8015354,85.9948379 C31.7822751,86.0260497 31.9161726,86.2174047 31.9837376,86.2551671 C32.008853,86.2692702 32.029346,86.3008673 32.029346,86.3254513 C32.029346,86.3500354 32.0501471,86.3701497 32.0755706,86.3701497 C32.1009942,86.3701497 32.1217953,86.3909575 32.1217953,86.4163893 C32.1217953,86.4418211 32.1425964,86.4626289 32.16802,86.4626289 C32.1934435,86.4626289 32.2142446,86.4834368 32.2142446,86.5088686 C32.2142446,86.5343004 32.2350457,86.5551082 32.2604693,86.5551082 C32.2858929,86.5551082 32.306694,86.5772262 32.306694,86.6041993 C32.306694,86.6312495 32.3344288,86.6606117 32.3683269,86.6694743 C32.4022249,86.6783369 32.4299597,86.7047705 32.4299597,86.7282757 C32.4299597,86.7517038 32.4432108,86.7708932 32.4593894,86.7708932 C32.4976018,86.7708932 32.6456748,86.9190142 32.6456748,86.957239 C32.6456748,86.9734228 32.6650122,86.9866782 32.6885867,86.9866782 C32.7122384,86.9866782 32.7395109,87.007486 32.7492951,87.0329178 C32.7590023,87.0583497 32.7882779,87.0791575 32.8141638,87.0791575 C32.8401266,87.0791575 32.86139,87.0983469 32.86139,87.121775 C32.86139,87.1612329 32.9665511,87.2145626 33.0254875,87.2050064 C33.039432,87.2027715 33.0415121,87.2161039 33.0300329,87.2345998 C33.0183227,87.2536351 33.0373518,87.2755989 33.0740234,87.2852322 C33.1096164,87.2944801 33.138738,87.3212991 33.138738,87.3448042 C33.138738,87.3682323 33.151989,87.3874218 33.1681677,87.3874218 C33.20638,87.3874218 33.3544531,87.5355427 33.3544531,87.5737675 C33.3544531,87.5899514 33.3752542,87.6032068 33.4006777,87.6032068 C33.4261013,87.6032068 33.4469024,87.6240146 33.4469024,87.6494464 C33.4469024,87.6751094 33.474329,87.695686 33.5085353,87.695686 C33.5424334,87.695686 33.5701682,87.715415 33.5701682,87.7394596 C33.5701682,87.7635812 33.6106147,87.7921728 33.6600751,87.8030391 C33.7094585,87.8139054 33.7576092,87.8427281 33.7669312,87.867081 C33.7763302,87.8915109 33.8052206,87.911471 33.8311064,87.911471 C33.8570693,87.911471 33.8783326,87.9322789 33.8783326,87.9577107 C33.8783326,87.9831425 33.899596,88.0039503 33.9255588,88.0039503 C33.9514446,88.0039503 33.980335,88.0237563 33.989657,88.0480321 C33.9989019,88.0723079 34.0470526,88.106217 34.096513,88.1234798 C34.1459734,88.1407426 34.186497,88.1694882 34.186497,88.1872905 C34.186497,88.2051698 34.2072981,88.2197353 34.2327217,88.2197353 C34.2581453,88.2197353 34.2789464,88.2372293 34.2789464,88.2586537 C34.2789464,88.2973408 34.3399629,88.3375693 34.5023656,88.4059269 C34.5489755,88.4255017 34.5871108,88.4610292 34.5871108,88.4847655 C34.5871108,88.5085789 34.6083742,88.5279996 34.634337,88.5279996 C34.6602228,88.5279996 34.6894984,88.5488074 34.6992056,88.5742392 C34.7093751,88.6005958 34.7552916,88.6204789 34.8061387,88.6204789 C34.8626098,88.6204789 34.8952753,88.6365086 34.8952753,88.6642524 C34.8952753,88.6883741 34.9357218,88.7169656 34.9851822,88.7278319 C35.0345656,88.7386982 35.0827163,88.7675209 35.0920382,88.7918738 C35.1014373,88.8163037 35.1287869,88.8362638 35.1529778,88.8362638 C35.1770916,88.8362638 35.2048264,88.8570717 35.2146107,88.8825035 C35.2243178,88.9079353 35.264071,88.9287431 35.3028998,88.9287431 C35.3417285,88.9287431 35.3908037,88.9564869 35.41199,88.990396 C35.4331763,89.0243051 35.4785535,89.0520488 35.5128368,89.0520488 C35.5471201,89.0520488 35.5831753,89.0728567 35.5928825,89.0982885 C35.6026667,89.1237203 35.6377204,89.1445281 35.6707711,89.1445281 C35.7038987,89.1445281 35.7233131,89.1569358 35.7139141,89.1721178 C35.6944227,89.2036378 35.7659168,89.2370074 35.8531274,89.2370074 C35.8856387,89.2370074 35.9122179,89.2571987 35.9122179,89.2818599 C35.9122179,89.3085247 35.9550528,89.3347272 36.0179183,89.3465183 C36.0760843,89.3574617 36.1310917,89.385822 36.1402596,89.4095583 C36.1493504,89.4333717 36.197347,89.4527924 36.2469615,89.4527924 C36.2985791,89.4527924 36.3446497,89.4725213 36.3548191,89.499032 C36.3645263,89.5244638 36.4080545,89.5452717 36.4515057,89.5452717 C36.4949569,89.5452717 36.5384851,89.5660795 36.5481923,89.5915113 C36.5579765,89.6169431 36.5820133,89.637751 36.6016588,89.637751 C36.6212272,89.637751 36.6891005,89.6654947 36.7522742,89.6994038 C36.8155249,89.7333129 36.8891762,89.7610567 36.9158324,89.7610567 C36.9425657,89.7610567 36.9851694,89.7818645 37.010593,89.8072963 C37.0360166,89.8327281 37.0943367,89.8535359 37.1402532,89.8535359 C37.1860927,89.8535359 37.2473403,89.8812797 37.2763848,89.9151888 C37.3107452,89.9552632 37.3672933,89.9768417 37.4383252,89.9768417 C37.5068918,89.9768417 37.554041,89.9940274 37.5651349,90.0230813 C37.5759207,90.0512104 37.6226076,90.0693209 37.6841634,90.0693209 C37.7457193,90.0693209 37.7924062,90.0874315 37.8031919,90.1155606 C37.8142859,90.1446145 37.861435,90.1618002 37.9296934,90.1618002 C37.9974896,90.1618002 38.0618189,90.1850742 38.1001854,90.2234531 C38.1376274,90.2609072 38.2028812,90.2851059 38.2663631,90.2851059 C38.3309235,90.2851059 38.3777645,90.3028311 38.3887044,90.3313456 C38.4008769,90.3630968 38.4504913,90.3775852 38.5470239,90.3775852 C38.6435564,90.3775852 38.6931708,90.3920736 38.7053433,90.4238249 C38.7183633,90.4576569 38.7716757,90.4700645 38.9047257,90.4700645 C39.0452487,90.4700645 39.1002561,90.4840135 39.1479445,90.5317173 C39.1927824,90.5765698 39.2506403,90.5933702 39.3603469,90.5933702 C39.4659702,90.5933702 39.5164321,90.6072421 39.5289128,90.6396098 C39.5418557,90.6735189 39.5953222,90.6858495 39.7292197,90.6858495 C39.8630401,90.6858495 39.9165066,90.6981801 39.9295266,90.7320891 C39.9435481,90.7687726 40.0088019,90.7783288 40.245241,90.7783288 C40.4909251,90.7783288 40.5500927,90.7875767 40.5818336,90.831042 C40.6127271,90.8733512 40.683682,90.8862213 40.9396126,90.8962399 C41.1686558,90.9052566 41.2658046,90.9208239 41.2835241,90.9514192 C41.322661,91.0191602 44.0785755,91.0146133 44.0785755,90.9467952 C44.0785755,90.9207469 44.0980669,90.8687273 44.1218726,90.8311961 C44.1456013,90.7936649 44.1744917,90.700492 44.1858938,90.6241966 C44.1972959,90.5479012 44.2316562,90.4161182 44.2622415,90.3313456 C44.2928269,90.2465729 44.3279576,90.100918 44.3402842,90.0076681 C44.3526108,89.9144181 44.3820405,89.7913436 44.405538,89.7341606 C44.4291126,89.6769776 44.4483729,89.5729384 44.4483729,89.5028853 C44.4483729,89.4328323 44.4761077,89.278546 44.5100058,89.1599413 C44.5439038,89.0413367 44.5716386,88.8605397 44.5716386,88.7580418 C44.5716386,88.655621 44.592902,88.4901601 44.6188648,88.3903596 C44.6449047,88.290559 44.6786487,87.972045 44.6939799,87.6825848 C44.7092341,87.3930476 44.7386638,86.9198619 44.7592337,86.6309412 C44.7884323,86.222414 44.7885864,85.9895974 44.7602353,85.5828427 C44.7401275,85.2953092 44.7103897,84.8010845 44.694134,84.4845742 C44.6779554,84.1681409 44.6437491,83.828819 44.6181715,83.7305598 C44.5925938,83.6323776 44.5713305,83.4612909 44.5709453,83.3503928 C44.570483,83.2394948 44.5427482,83.0456736 44.5093124,82.9196706 C44.4757995,82.7936676 44.4483729,82.6254323 44.4483729,82.5458231 C44.4483729,82.4662138 44.4283422,82.3531579 44.4039201,82.2945877 C44.3794211,82.2360175 44.3506077,82.112943 44.3397449,82.0210802 C44.3289591,81.9292175 44.2944447,81.7569748 44.263012,81.6382931 C44.1593917,81.2468745 44.1067726,81.0238453 44.0802704,80.8638562 C44.0659408,80.7770027 44.0374356,80.674659 44.0169426,80.6364342 C43.9964497,80.5982094 43.968869,80.4958657 43.9555409,80.4090122 C43.9422128,80.3221588 43.916404,80.2094882 43.8982993,80.1586246 C43.8217205,79.9437644 43.7642478,79.7500203 43.7429074,79.6345753 C43.7303497,79.5667572 43.7038476,79.4835258 43.6841251,79.4496167 C43.6478387,79.3875015 43.5572383,79.1360349 43.4785794,78.8793278 C43.4552359,78.8030324 43.3995352,78.6435057 43.3547743,78.5248239 C43.3100905,78.4061422 43.2621709,78.2674232 43.2483035,78.2165596 C43.2344361,78.165696 43.2007691,78.0824647 43.1734195,78.0316011 C43.1459929,77.9807375 43.1235739,77.9096055 43.1234199,77.8735386 C43.1233428,77.8374717 43.1024647,77.7906926 43.0770411,77.7695764 C43.0516175,77.7484603 43.0308164,77.7101585 43.0308164,77.6844184 C43.0308164,77.6586784 43.0048536,77.5806104 42.9731127,77.5109427 C42.9413717,77.441275 42.8774276,77.2940788 42.8310488,77.1838743 C42.7186459,76.9169175 42.5861352,76.613123 42.4612515,76.3361476 C42.3222694,76.0278062 41.8785896,75.1455539 41.8553232,75.1311425 C41.8207317,75.1097952 41.5544006,75.2059737 41.4845243,75.2651604 C41.4560962,75.2892821 41.4233537,75.3666564 41.4117975,75.437249 C41.4002414,75.5077644 41.3429998,75.7042058 41.2846026,75.8737512 C41.2262055,76.0432965 41.1633399,76.237503 41.1448501,76.3053212 C41.1264373,76.3731393 41.0925392,76.4505136 41.0695809,76.4772555 C41.0465456,76.5040745 41.0276705,76.5526262 41.0275165,76.585148 C41.0274394,76.617747 40.9997817,76.6860275 40.9661147,76.7368911 C40.9324477,76.7877547 40.90479,76.8519508 40.9047129,76.8795404 C40.9045589,76.9071301 40.8850675,76.9458172 40.8612618,76.9655462 C40.8375331,76.9852751 40.8101065,77.033056 40.8003993,77.0717432 C40.7671946,77.2041427 40.5501698,77.5618063 40.4884598,77.5858509 C40.4545617,77.5990292 40.381989,77.6265418 40.3272898,77.6469643 C40.2262889,77.6845726 40.1101109,77.8766983 40.059572,78.0894777 C40.0246723,78.2362886 39.8814529,78.3552786 39.7396973,78.3552786 C39.5141979,78.3552786 39.2881593,78.6619245 39.2511026,79.0180468 C39.2338453,79.1835847 39.0854642,79.6359625 39.0021057,79.7770705 C38.955881,79.8553696 38.9330769,79.8640781 38.751568,79.87217 L38.5519545,79.8811867 L38.4833109,80.0969717 C38.4455607,80.2156535 38.3941743,80.3959881 38.3691359,80.4977153 C38.2283048,81.0696996 38.1373192,81.1606376 37.8091241,81.0572149 C37.6032703,80.9922482 37.5775385,81.0038081 37.4880938,81.2006349 C37.4480324,81.2887214 37.4029634,81.3816631 37.3878633,81.4070949 C37.3727633,81.4325267 37.3461841,81.4880142 37.3287728,81.5304006 C37.1970325,81.8511496 36.9719184,82.1898549 36.8277745,82.2843379 C36.6534304,82.3984728 36.4827844,82.1879283 36.3892565,81.7431029 C36.3638329,81.6223404 36.3349425,81.5104405 36.3250042,81.4944107 C36.3151429,81.478381 36.2950352,81.3274856 36.2804744,81.1591733 C36.2658366,80.990784 36.2308599,80.7453285 36.2026629,80.6136997 C36.1263151,80.2564214 36.1219238,78.1180692 36.19727,77.9467513 C36.2252359,77.8831718 36.2626009,77.7524678 36.2803974,77.6562893 C36.3122153,77.4843549 36.5068212,77.04346 36.6315507,76.8608134 C36.720148,76.7311882 37.2451061,76.2143832 37.6850879,75.8235812 C38.5873164,75.0221711 38.8726766,74.6984936 38.5109686,74.8863807 C38.463049,74.9113501 38.33362,74.9680707 38.2234512,75.0123837 C38.1132824,75.0567738 37.9638227,75.1195826 37.891327,75.1520274 C37.8188313,75.1844723 37.7424065,75.210983 37.7213743,75.210983 C37.7004191,75.210983 37.6314673,75.2387268 37.5682936,75.2726358 C37.5050428,75.3065449 37.4361681,75.3342887 37.4152129,75.3342887 C37.3787725,75.3342887 37.1388665,75.4206027 36.9445688,75.5036799 C36.6779295,75.6176606 36.1896429,75.64263 36.094189,75.5471452 L36.0296286,75.4825638 L36.1048207,75.4007196 C36.3011985,75.1871696 36.3079781,75.0876773 36.1261611,75.0876773 C35.9847906,75.0876773 35.9016633,75.1343022 35.7408785,75.3038476 C35.5869503,75.4661487 35.5278598,75.5110783 35.1258593,75.7713304 C34.7660003,76.0043011 34.5093763,76.035667 34.2959725,75.8729034 C34.2410421,75.8309795 34.1782536,75.7966851 34.1565281,75.7966851 C34.1103034,75.7966851 33.5789509,76.0672641 33.5035276,76.1291481 C33.3265642,76.2744947 33.1979826,75.9955156 33.3405857,75.7754149 C33.4702458,75.5751202 33.4123109,75.2546024 33.2655476,75.36026 C33.238198,75.3799889 33.1811106,75.4102758 33.138738,75.4276928 C33.0321131,75.4713122 32.8553037,75.5537729 32.7997571,75.5856011 C32.7743335,75.6002437 32.7188639,75.6275251 32.6764913,75.6462521 C32.6341187,75.6650563 32.5439806,75.7049765 32.4761844,75.7350322 C32.4083882,75.7651651 32.2627805,75.8269721 32.1526117,75.8725181 C32.042443,75.9179871 31.9125516,75.9753242 31.8640157,75.9998313 C31.7285775,76.068343 31.2588578,76.091694 31.182433,76.0337403 C31.1230344,75.9886567 31.1228032,75.9834933 31.174883,75.8381466 C31.2043127,75.7559942 31.2283496,75.657812 31.2282725,75.6198955 C31.2281955,75.581979 31.2752676,75.4155163 31.3329714,75.2499784 C31.3906752,75.0844405 31.4547734,74.9004067 31.4754204,74.8410659 C31.4961444,74.781725 31.5382089,74.6776858 31.5689483,74.6098677 C31.5996107,74.5420495 31.6328924,74.4657541 31.6429078,74.4403223 C31.6528461,74.4148905 31.7156346,74.2969794 31.7822751,74.1782977 C31.8489157,74.0596159 31.9305022,73.9139611 31.9635529,73.8546202 C32.0460639,73.7061909 32.1839675,73.5441981 32.4800365,73.247802 C32.69475,73.0327876 32.8285704,72.9327559 33.1079215,72.7781613 C33.4298763,72.6000617 34.1778684,72.2874817 34.3777901,72.2474844 C34.4576047,72.2315317 34.5616102,72.1983162 34.6089134,72.173578 C34.6562937,72.1489169 34.7460466,72.1286485 34.808527,72.1284944 C34.8710073,72.1284173 34.9611454,72.1125417 35.0088338,72.0932752 C35.0565223,72.0740087 35.213455,72.0407161 35.3575219,72.0193688 C35.5015888,71.9979445 35.6749313,71.9654997 35.7427275,71.947235 C35.8105236,71.9289703 35.9110623,71.9137113 35.9661467,71.9133259 C36.0212311,71.9128635 36.0663001,71.8986834 36.0663001,71.8817288 C36.0663001,71.8647743 36.0347133,71.8509024 35.9961157,71.8509024 C35.9575181,71.8509024 35.8981964,71.8314818 35.8642213,71.8076683 C35.8303232,71.783932 35.7434208,71.7485587 35.6711563,71.729061 C35.2176923,71.6069112 35.6243153,71.3024232 36.2475779,71.2973368 C36.5799332,71.2947166 36.6829372,71.1583867 36.4733853,70.9984746 C36.3469609,70.9019879 36.2847117,70.8895803 35.3961195,70.7837686 C35.1849498,70.758645 35.140266,70.5890226 35.3444249,70.5874813 C35.3796327,70.5872501 35.4400329,70.553341 35.4786305,70.5122648 L35.548892,70.4374336 L35.4300946,70.3777845 C35.3635311,70.3444149 35.2136862,70.3103517 35.0894188,70.3004102 C34.9674628,70.2906228 34.8378796,70.2667323 34.8015933,70.2472346 C34.7653069,70.2278139 34.6293293,70.2041547 34.4995921,70.1946755 C34.1804878,70.1713245 33.7240193,70.0548777 33.686115,69.9871366 C33.6567624,69.9346546 33.6643894,69.851115 33.7081488,69.7469987 C33.7349591,69.6832651 33.1974433,69.6693161 32.8305735,69.7242643 C31.9556947,69.8553536 31.6070066,69.5352983 32.4561537,69.3807037 C32.8343485,69.3118067 32.6872,69.2349718 32.1063871,69.197903 C30.8469961,69.1176772 30.3386788,68.9841988 30.5369056,68.7859078 C30.5634848,68.75932 30.6154875,68.7306514 30.6524673,68.7223283 C30.9362097,68.6580552 31.0260396,68.646187 31.2435266,68.643875 C31.379119,68.6424108 31.5593952,68.6279994 31.6441404,68.6118156 C31.7288856,68.5955546 31.9646314,68.5675026 32.16802,68.5494691 C32.3714085,68.5313586 32.6150125,68.4969101 32.7093108,68.4728654 C32.8036862,68.4488208 32.970095,68.4290148 33.0791081,68.4287836 C33.1881983,68.4286295 33.3883511,68.4010399 33.5239435,68.3675161 C33.6595359,68.3339924 33.8606131,68.3062486 33.9707819,68.3058633 C34.0809507,68.3054779 34.2342625,68.2859802 34.3115348,68.2625521 C34.388807,68.2391241 34.5760169,68.2104555 34.7275568,68.1988185 C34.8790966,68.1872586 35.114072,68.1578964 35.2496644,68.1335435 C36.144805,67.9729379 38.1080436,67.9652312 38.6548814,68.1202111 C38.7650502,68.1514999 38.912815,68.1861797 38.9833077,68.1974313 C39.0538003,68.208683 39.1370047,68.2371974 39.1682063,68.2608567 C39.199408,68.284516 39.2598852,68.3043219 39.302489,68.3048614 C39.3450927,68.3054009 39.431764,68.3336071 39.4949377,68.3675161 C39.5581884,68.4014252 39.6303759,68.429169 39.6553373,68.429169 C39.6802986,68.429169 39.7531795,68.4553714 39.8172777,68.4873539 C39.8812988,68.5193363 40.0100345,68.583147 40.1032543,68.6292325 C40.4806787,68.8157324 40.8421556,69.0755992 41.140998,69.3753091 C41.2978537,69.532678 41.3701183,69.5863931 41.3898408,69.5602677 C41.4429221,69.4899834 41.5824436,69.1779429 41.5824436,69.1296225 C41.5824436,69.1028035 41.6009334,69.0624979 41.6235065,69.0399176 C41.6460025,69.0173372 41.6748929,68.9574569 41.6876047,68.9068245 C41.7002394,68.8562691 41.723814,68.799009 41.7398386,68.7796655 C41.7559402,68.7602448 41.832519,68.6214488 41.9100994,68.47117 C42.0275871,68.2435168 42.417107,67.6194358 42.4749648,67.566029 C42.4842098,67.5575517 42.533285,67.4885005 42.584055,67.4125134 C42.7200326,67.2092131 43.0472262,66.8059264 43.2439892,66.5990811 C43.6057742,66.21876 44.0726434,65.77432 44.2340445,65.6566401 C44.3264938,65.5892073 44.4229493,65.5142991 44.4483729,65.4901774 C44.5448283,65.3987 45.1898935,64.9257455 45.3590758,64.822477 C45.4563017,64.7631361 45.5516016,64.7007126 45.5707848,64.6837581 C45.6655454,64.5999872 46.0217064,64.3623926 46.2049102,64.2606653 C46.2811809,64.2183561 46.3921201,64.1550078 46.4514417,64.1198656 C46.6865712,63.9806073 47.4099872,63.6202463 47.4544399,63.6202463 C47.4804028,63.6202463 47.5560571,63.5925025 47.6224666,63.5585935 C47.688876,63.5246844 47.7729279,63.4969406 47.8092142,63.4969406 C47.8454236,63.4969406 47.9187667,63.4770576 47.9722332,63.4527047 C48.0256227,63.4284289 48.1663768,63.3949051 48.2850201,63.3782589 C48.4036634,63.3616126 48.5562048,63.3333293 48.624001,63.3152959 C48.7755409,63.2751445 49.461592,63.2742197 49.6717601,63.3139858 C49.7565053,63.3299384 49.911435,63.3553702 50.0160568,63.3704752 C50.3427111,63.4175626 50.3444831,63.4349024 50.050032,63.7071768 C49.7180618,64.0142081 49.5899424,64.1497673 49.6114369,64.1712687 C49.6220686,64.1818268 49.9588923,64.1908435 50.3600454,64.1912288 C50.7611214,64.1916141 51.1143549,64.2037906 51.1448632,64.218279 C51.2098859,64.2491054 51.2039537,64.3587705 51.1355412,64.390907 C51.1101176,64.4028522 51.0269132,64.4409229 50.9506425,64.4755255 C50.8743718,64.5100511 50.7480244,64.5676195 50.6699047,64.6033782 C50.591785,64.6390597 50.5085806,64.6688072 50.4850061,64.6693467 C50.4614315,64.6698862 50.4152839,64.690694 50.3823873,64.7155863 C50.3494137,64.7404787 50.2922492,64.7608241 50.2551924,64.7608241 C50.2181357,64.7608241 50.1705243,64.781632 50.149415,64.8070638 C50.1283057,64.8324956 50.0977204,64.8533034 50.0814647,64.8533034 C50.0286916,64.8533034 49.5539642,65.0648498 49.0092066,65.3311901 C48.7089774,65.478001 48.657668,65.5081338 48.485327,65.6394544 C48.3921073,65.7105093 48.2854053,65.7847239 48.2481174,65.8043758 C48.2109066,65.8241047 48.1138348,65.8967009 48.0324023,65.9657521 C47.9510469,66.0348033 47.8484282,66.1214256 47.8044377,66.1581861 C47.3079848,66.5731098 47.1159983,66.774021 47.0936564,66.9017195 C47.0812528,66.9728515 47.1634557,66.9918868 47.6301707,67.0258729 C48.0946515,67.0597049 48.0665315,67.1209725 47.3330231,67.6751546 C46.9214695,67.9860391 46.9001291,68.0013752 46.8366473,68.0323558 C46.8027492,68.048925 46.7195448,68.0962436 46.6517486,68.137551 C46.5839524,68.1788584 46.4917342,68.2275641 46.4468193,68.2457517 C46.2960498,68.3069422 46.3198555,68.429169 46.4825663,68.429169 C46.5599926,68.429169 46.6651538,68.5689668 46.6452001,68.6453393 C46.6363404,68.6790172 46.5302548,68.7925355 46.4093002,68.8974995 C46.2884227,69.0025405 46.1756345,69.1031117 46.1586855,69.1209911 C46.1417365,69.1389475 46.0099962,69.2523887 45.8659293,69.3730742 C45.7218624,69.4938367 45.5489822,69.6464275 45.4817253,69.7121649 L45.359384,69.8317714 L45.4727885,69.8412505 C45.5351148,69.846491 45.638658,69.8345458 45.7029103,69.8147398 C45.8712451,69.7627202 47.1472,69.7409105 47.4529761,69.7846841 C47.5885685,69.8041818 47.8797839,69.838322 48.1001215,69.8606712 C48.320459,69.8830204 48.5397951,69.9168524 48.5874835,69.9358877 C48.635172,69.954923 48.7397168,69.9704903 48.8196854,69.9704903 C48.8996541,69.9704903 49.0440291,69.9982341 49.1404846,70.0321432 C49.2369401,70.0660523 49.3540426,70.0937961 49.4008065,70.0937961 C49.4802359,70.0937961 49.8433307,70.2006867 50.0877821,70.2960174 C50.1471038,70.3191372 50.2539598,70.3528922 50.3252998,70.3709256 C50.3966399,70.3889591 50.4632805,70.4172423 50.4735269,70.4337345 C50.4836964,70.4502266 50.5226021,70.4637132 50.5600441,70.4637132 C50.597409,70.4637132 50.679766,70.491457 50.7429397,70.525366 C50.8061904,70.5592751 50.8830775,70.5870189 50.9138169,70.5870189 C50.9445563,70.5870189 50.996559,70.6073643 51.0295326,70.6322567 C51.0624292,70.657149 51.1101176,70.6780339 51.1355412,70.6785734 C51.2115037,70.6803459 51.8913915,71.0344645 52.1368445,71.2001565 C52.2149642,71.2528697 52.2898481,71.2960267 52.3033303,71.2960267 C52.3168125,71.2960267 52.3529448,71.3237705 52.3836072,71.3576796 C52.4142695,71.3915886 52.4520967,71.4193324 52.467582,71.4193324 C52.5113413,71.4193324 52.7734352,71.6041369 52.8795208,71.7097944 C52.9319087,71.7619682 53.0926935,71.9117846 53.2368375,72.0427969 C53.3809814,72.1737322 53.5392238,72.3401949 53.588376,72.412714 C53.6376053,72.4851561 53.6952321,72.5628387 53.7164184,72.585265 C53.7376047,72.6076141 53.7549389,72.6376699 53.7549389,72.6519271 C53.7549389,72.6661843 53.8034748,72.7515735 53.8627965,72.8416638 C53.9221181,72.931754 53.970654,73.0236168 53.970654,73.0458118 C53.970654,73.0680068 53.993073,73.1203347 54.0204226,73.1621045 C54.1909146,73.4223566 54.0602528,73.8244103 53.805632,73.8234084 C53.59947,73.8226378 52.9359919,73.5542937 52.5839141,73.3292608 C52.5584905,73.3129999 52.5030209,73.2856414 52.4606483,73.2683786 C52.4182757,73.2511929 52.3212039,73.2014853 52.2449332,73.1579429 C52.1108816,73.0814163 51.3796074,72.7064128 51.1728291,72.6081536 C50.9846947,72.5186799 50.7058829,72.5473485 50.6642037,72.6603273 C50.6121239,72.8016665 50.9913973,73.2380916 51.1662806,73.2380916 C51.1815347,73.2380916 51.2313803,73.2727714 51.2771428,73.3151577 C51.3228281,73.357544 51.3860018,73.3922238 51.4173576,73.3922238 C51.4766792,73.3922238 51.4948609,73.4376928 51.4473266,73.4670549 C51.4323035,73.4763029 51.352566,73.4634328 51.270132,73.4383863 C51.187621,73.4133399 51.0646634,73.3926862 50.9968672,73.3923779 C50.929071,73.3920696 50.8366217,73.3724949 50.7913986,73.3489126 C50.7461754,73.3253304 50.6491036,73.2963536 50.5756834,73.2844854 C50.5022633,73.2726943 50.4114318,73.2434863 50.3739128,73.2197499 C50.3363938,73.1959365 50.2736053,73.1764388 50.2343913,73.1764388 C50.1951774,73.1764388 50.1357787,73.1578659 50.1023429,73.1352084 C49.905734,73.0020383 48.6719976,72.7288391 48.6232306,72.8076776 C48.6153724,72.8204706 48.7872511,73.0096678 49.0052004,73.2283042 C49.2231497,73.4468636 49.411053,73.6558668 49.4227632,73.6927814 C49.4758446,73.8600919 49.2792357,73.9457123 49.0770027,73.8432915 C49.0312403,73.8201716 48.944415,73.7922737 48.8840148,73.7813304 C48.8236916,73.770464 48.6572828,73.7118168 48.5142174,73.6510887 C48.3712291,73.5903606 48.2126015,73.5299408 48.1617544,73.5168396 C48.0766239,73.4948758 47.973697,73.4535684 47.7303241,73.3436721 C47.679477,73.3206294 47.5962726,73.2924232 47.5454255,73.2807862 C47.4945783,73.2692263 47.4256266,73.2409431 47.3921907,73.2180545 C47.3587549,73.1951658 47.3060587,73.1764388 47.2750112,73.1764388 C47.2440407,73.1764388 47.1673848,73.1502363 47.1046733,73.1181768 C46.6725497,72.8972284 46.2572981,72.8398913 46.38457,73.0187616 C46.4327207,73.0864256 46.543891,73.2931168 46.543891,73.3149265 C46.543891,73.3641717 46.3928905,73.3806639 46.2665431,73.3451364 C46.1902724,73.323712 46.0193952,73.2978949 45.8868074,73.2877222 C45.7541426,73.2776265 45.573019,73.2481873 45.4842676,73.2223702 C45.2809561,73.1632605 44.4086197,73.142915 44.3550761,73.1960906 C44.328651,73.2222931 44.3953686,73.2912672 44.621099,73.4711394 C45.0205572,73.7891911 46.2917355,75.0613207 46.5599156,75.4113548 C46.676864,75.5639456 46.8125334,75.7304083 46.8614545,75.7812719 C47.0557522,75.9832621 47.5720047,76.8073295 47.7884131,77.2609404 C47.9602148,77.6209931 47.9922639,77.6993693 47.9922639,77.7596349 C47.9922639,77.7914632 48.0126028,77.8465655 48.037487,77.8820929 C48.0623713,77.9176204 48.0922633,78.0074023 48.1039735,78.081617 C48.1156067,78.1558316 48.1421859,78.2443034 48.16291,78.2782125 C48.1837111,78.3121216 48.2095969,78.421093 48.2203826,78.5203541 C48.2312454,78.6196152 48.2556675,78.7300509 48.2747737,78.7656554 C48.3741567,78.9514617 48.3605975,80.1160841 48.2542807,80.5285417 C48.0529723,81.309221 47.748891,81.3881366 47.6747775,80.6788976 C47.6642229,80.577941 47.6342539,80.4443085 47.608214,80.381962 C47.5821741,80.3195385 47.5607567,80.2091028 47.5606796,80.1365066 C47.5605255,80.0639104 47.5417275,79.9685026 47.5187693,79.9245749 C47.495811,79.8805702 47.4672287,79.7904029 47.4551333,79.7242031 C47.4355649,79.616773 47.3669212,79.4577087 47.2357973,79.2158754 C47.0646119,78.9001357 46.809991,78.8078105 46.7824874,79.0515705 C46.7607618,79.2446981 46.7257081,79.2715941 46.6085285,79.1849719 C46.5560635,79.1461306 46.5130746,79.103513 46.5130746,79.0902577 C46.5130746,79.0770023 46.4529055,78.9721154 46.3794083,78.8571328 C46.3059111,78.7422273 46.2358807,78.6273218 46.2238623,78.60189 C46.2118439,78.5764582 46.1683156,78.5001628 46.1270986,78.4323446 C46.0859587,78.3645265 46.037885,78.27644 46.0203197,78.2365968 C46.0027543,78.1966766 45.9425852,78.0926374 45.8865763,78.0053986 C45.6660076,77.6613757 45.6193977,77.5853115 45.6193977,77.5692047 C45.6193977,77.5216549 45.4510629,77.30718 45.413775,77.30718 C45.3898923,77.30718 45.3138527,77.3360027 45.2448239,77.371299 C45.0291087,77.4813494 44.9423605,77.3990428 44.7388949,76.8910233 C44.5147053,76.3313695 44.2588517,75.9527439 43.9787303,75.766244 C43.7939086,75.6432466 43.3341273,75.2797259 43.0865942,75.0609353 C42.9557784,74.9453362 42.9207247,74.9981265 43.0107087,75.1753785 C43.0335129,75.220385 43.0841289,75.3265821 43.1231117,75.4113548 C43.1620945,75.4961274 43.2053146,75.5862947 43.2191049,75.6117265 C43.2704143,75.7061325 43.4859753,76.1553506 43.5371306,76.2744947 C43.6157896,76.4577578 43.6640944,76.5668834 43.7362819,76.7248688 C43.772029,76.8030138 43.8012275,76.8880177 43.8012275,76.9137578 C43.8012275,76.9394978 43.8220286,76.9777997 43.8474522,76.9989158 C43.8728758,77.0200319 43.8936769,77.0684294 43.8936769,77.1064229 C43.8936769,77.1444165 43.9191775,77.2086125 43.9503791,77.2490722 C43.9815808,77.2895319 44.0150166,77.350337 44.0246468,77.3842461 C44.0342769,77.4181552 44.0931363,77.56381 44.1554626,77.7079236 C44.2177888,77.8520371 44.2819641,78.0144924 44.2980657,78.0690552 C44.3141673,78.1235409 44.3407464,78.1763312 44.3570791,78.1864268 C44.3734119,78.1965225 44.38674,78.2353638 44.38674,78.2728179 C44.38674,78.3101949 44.4144748,78.3925785 44.4483729,78.4557727 C44.482271,78.519044 44.5100058,78.5955706 44.5100058,78.6257805 C44.5100058,78.6559133 44.5290349,78.70801 44.5523013,78.7414566 C44.5755677,78.7749033 44.6046122,78.8508134 44.6169388,78.9101543 C44.6292654,78.9694951 44.6587721,79.0487961 44.6825008,79.0863273 C44.7063065,79.1238585 44.7257209,79.1755698 44.7257209,79.2012328 C44.7257209,79.2268958 44.7585404,79.3209935 44.7986788,79.4103901 C44.879649,79.5908018 44.9620059,79.8236184 45.0040704,79.9910829 C45.0192475,80.0515798 45.0528374,80.1417471 45.0788003,80.1914547 C45.1047631,80.2412394 45.1260265,80.3174577 45.1261805,80.3608459 C45.1262576,80.4041571 45.1466735,80.4665806 45.1715578,80.4995648 C45.196442,80.5324721 45.2172431,80.601215 45.2177824,80.6523098 C45.2183217,80.7034046 45.2465188,80.7970399 45.2804168,80.860234 C45.3143149,80.9235053 45.3420497,81.0139038 45.3420497,81.0610682 C45.3420497,81.1081556 45.3616952,81.1748177 45.385732,81.2091121 C45.4097689,81.2434836 45.4392756,81.3263296 45.4514481,81.393223 C45.4635436,81.4601934 45.4878886,81.5427311 45.505531,81.5766402 C45.5395061,81.6419922 45.6618474,82.0899002 45.7156991,82.3461449 C45.7333415,82.430224 45.7674707,82.5370376 45.7915076,82.5835084 C45.8154674,82.6299022 45.8351899,82.7206089 45.8352669,82.7850362 C45.835421,82.8494634 45.8558369,82.9412491 45.8807212,82.988953 C45.9056055,83.0366569 45.9342647,83.147632 45.9443571,83.2355644 C45.9544495,83.3234968 45.9810287,83.4439511 46.0034477,83.5032919 C46.0258666,83.5626328 46.0587632,83.6944158 46.0764826,83.796143 C46.1167751,84.02711 46.1616901,84.2355737 46.2550639,84.6252968 C46.2952794,84.7931467 46.3285611,84.9734813 46.3289464,85.0260404 C46.3294086,85.0786765 46.3567582,85.2395904 46.3898088,85.383704 C46.4228595,85.5278175 46.4502091,85.7225635 46.4506713,85.816507 C46.4510565,85.9104506 46.4705479,86.0630414 46.4938914,86.1555977 C46.5172348,86.2481541 46.5454319,86.4903727 46.5564488,86.6938271 C46.5675427,86.8972816 46.5923499,87.1192318 46.6115331,87.18705 C46.6347996,87.2691253 46.6505159,87.8588349 46.6587593,88.9518629 C46.6722415,90.7571356 46.6673109,90.7165218 46.8520555,90.5317173 C46.8997439,90.4840135 46.9547513,90.4700645 47.0952743,90.4700645 C47.2283243,90.4700645 47.2816367,90.4576569 47.2946567,90.4238249 C47.3068292,90.3920736 47.3564436,90.3775852 47.4529761,90.3775852 C47.5495087,90.3775852 47.5991231,90.3630968 47.6112956,90.3313456 C47.6222355,90.3028311 47.6690765,90.2851059 47.7336369,90.2851059 C47.7971188,90.2851059 47.8623726,90.2609072 47.8998146,90.2234531 C47.9381811,90.1850742 48.0025104,90.1618002 48.0703066,90.1618002 C48.138565,90.1618002 48.1857141,90.1446145 48.1968081,90.1155606 C48.2075938,90.0874315 48.2542807,90.0693209 48.3158366,90.0693209 C48.3773924,90.0693209 48.4240793,90.0512104 48.4348651,90.0230813 C48.445959,89.9940274 48.4931082,89.9768417 48.5616748,89.9768417 C48.6327067,89.9768417 48.6892548,89.9552632 48.7236152,89.9151888 C48.7526597,89.8812797 48.8139073,89.8535359 48.8597468,89.8535359 C48.9056633,89.8535359 48.9639834,89.8327281 48.989407,89.8072963 C49.0148306,89.7818645 49.0574343,89.7610567 49.0841676,89.7610567 C49.1108238,89.7610567 49.1844751,89.7333129 49.2477258,89.6994038 C49.3108995,89.6654947 49.3787728,89.637751 49.3983412,89.637751 C49.4179867,89.637751 49.4420235,89.6169431 49.4518077,89.5915113 C49.4615149,89.5660795 49.5050431,89.5452717 49.5484943,89.5452717 C49.5919455,89.5452717 49.6354737,89.5244638 49.6451809,89.499032 C49.6553503,89.4725213 49.7014209,89.4527924 49.7530385,89.4527924 C49.802653,89.4527924 49.8506496,89.4333717 49.8597404,89.4095583 C49.8689083,89.385822 49.9239157,89.3574617 49.9820817,89.3465183 C50.0449472,89.3347272 50.0877821,89.3085247 50.0877821,89.2818599 C50.0877821,89.2571987 50.1143613,89.2370074 50.1468726,89.2370074 C50.2340832,89.2370074 50.3055773,89.2036378 50.2860859,89.1721178 C50.2766869,89.1569358 50.2961013,89.1445281 50.3292289,89.1445281 C50.3622796,89.1445281 50.3973333,89.1237203 50.4071175,89.0982885 C50.4168247,89.0728567 50.4528799,89.0520488 50.4871632,89.0520488 C50.5214465,89.0520488 50.5668237,89.0243051 50.58801,88.990396 C50.6091963,88.9564869 50.6582715,88.9287431 50.6971002,88.9287431 C50.735929,88.9287431 50.7756822,88.9079353 50.7853893,88.8825035 C50.7951736,88.8570717 50.8229084,88.8362638 50.8470222,88.8362638 C50.8712131,88.8362638 50.8985627,88.8163037 50.9079618,88.7918738 C50.9172837,88.7675209 50.9654344,88.7386982 51.0148178,88.7278319 C51.0642782,88.7169656 51.1047247,88.6883741 51.1047247,88.6642524 C51.1047247,88.6365086 51.1373902,88.6204789 51.1938613,88.6204789 C51.2447084,88.6204789 51.2906249,88.6005958 51.3007944,88.5742392 C51.3105016,88.5488074 51.3397772,88.5279996 51.365663,88.5279996 C51.3916258,88.5279996 51.4128892,88.5085789 51.4128892,88.4847655 C51.4128892,88.4610292 51.4510245,88.4255017 51.4976344,88.4059269 C51.6600371,88.3375693 51.7210536,88.2973408 51.7210536,88.2586537 C51.7210536,88.2372293 51.7418547,88.2197353 51.7672783,88.2197353 C51.7927019,88.2197353 51.813503,88.2051698 51.813503,88.1872905 C51.813503,88.1694882 51.8540266,88.1407426 51.903487,88.1234798 C51.9529474,88.106217 52.0010981,88.0723079 52.010343,88.0480321 C52.019665,88.0237563 52.0485554,88.0039503 52.0744412,88.0039503 C52.100404,88.0039503 52.1216674,87.9831425 52.1216674,87.9577107 C52.1216674,87.9322789 52.1429307,87.911471 52.1688936,87.911471 C52.1947794,87.911471 52.2236698,87.8915109 52.2330688,87.867081 C52.2423908,87.8427281 52.2905415,87.8139054 52.3399249,87.8030391 C52.3893853,87.7921728 52.4298318,87.7635812 52.4298318,87.7394596 C52.4298318,87.715415 52.4575666,87.695686 52.4914647,87.695686 C52.525671,87.695686 52.5530976,87.6751094 52.5530976,87.6494464 C52.5530976,87.6240146 52.5738987,87.6032068 52.5993223,87.6032068 C52.6247458,87.6032068 52.6455469,87.5899514 52.6455469,87.5737675 C52.6455469,87.5355427 52.79362,87.3874218 52.8318323,87.3874218 C52.848011,87.3874218 52.861262,87.3682323 52.861262,87.3448042 C52.861262,87.3212991 52.8903836,87.2944801 52.9259766,87.2852322 C52.9626482,87.2755989 52.9816773,87.2536351 52.9699671,87.2345998 C52.9584879,87.2161039 52.960568,87.2027715 52.9745125,87.2050064 C53.0334489,87.2145626 53.13861,87.1612329 53.13861,87.121775 C53.13861,87.0983469 53.1598734,87.0791575 53.1858362,87.0791575 C53.2117221,87.0791575 53.2409977,87.0583497 53.2507049,87.0329178 C53.2604891,87.007486 53.2877616,86.9866782 53.3114133,86.9866782 C53.3349878,86.9866782 53.3543252,86.9734228 53.3543252,86.957239 C53.3543252,86.9190142 53.5023982,86.7708932 53.5406106,86.7708932 C53.5567892,86.7708932 53.5700403,86.7517038 53.5700403,86.7282757 C53.5700403,86.7047705 53.5977751,86.6783369 53.6316731,86.6694743 C53.6655712,86.6606117 53.693306,86.6312495 53.693306,86.6041993 C53.693306,86.5772262 53.7141071,86.5551082 53.7395307,86.5551082 C53.7649543,86.5551082 53.7857554,86.5343004 53.7857554,86.5088686 C53.7857554,86.4834368 53.8065565,86.4626289 53.83198,86.4626289 C53.8574036,86.4626289 53.8782047,86.4418211 53.8782047,86.4163893 C53.8782047,86.3909575 53.8990058,86.3701497 53.9244294,86.3701497 C53.9498529,86.3701497 53.970654,86.3500354 53.970654,86.3254513 C53.970654,86.3008673 53.991147,86.2692702 54.0162624,86.2551671 C54.0838274,86.2174047 54.2177249,86.0260497 54.1984646,85.9948379 C54.1892967,85.9800412 54.1996202,85.9717181 54.2214999,85.9763421 C54.2433025,85.9810431 54.2753516,85.9536076 54.2926859,85.9154599 C54.3100201,85.8773122 54.3417611,85.8461004 54.3631785,85.8461004 C54.3845959,85.8461004 54.4020842,85.8252926 54.4020842,85.7998608 C54.4020842,85.774429 54.4228853,85.7536211 54.4483089,85.7536211 C54.4737325,85.7536211 54.4945336,85.7344317 54.4945336,85.7110036 C54.4945336,85.6874984 54.5222684,85.6610648 54.5561665,85.6522022 C54.5900646,85.6433396 54.6177994,85.6139774 54.6177994,85.5869272 C54.6177994,85.5599541 54.6386005,85.5378361 54.664024,85.5378361 C54.6894476,85.5378361 54.7102487,85.5165659 54.7102487,85.4905946 C54.7102487,85.4647004 54.7310498,85.4354153 54.7564734,85.425705 C54.7828214,85.4155323 54.802698,85.3696009 54.802698,85.3187373 C54.802698,85.2697233 54.8181062,85.2295719 54.8369043,85.2295719 C54.8768886,85.2295719 55.0171034,85.1024899 55.0178738,85.0654982 C55.018182,85.0516263 55.0392142,85.0194127 55.0646378,84.9939809 C55.0900614,84.9685491 55.1108625,84.9209993 55.1108625,84.8882462 C55.1108625,84.8555702 55.1241135,84.8288283 55.1402922,84.8288283 C55.1766556,84.8288283 55.3265776,84.681555 55.3265776,84.6457964 C55.3265776,84.631385 55.3473787,84.6116561 55.3728022,84.6018687 C55.3982258,84.5921584 55.4190269,84.5490014 55.4190269,84.5061527 C55.4190269,84.4565992 55.4362841,84.4280847 55.4662531,84.4280847 C55.4921389,84.4280847 55.5225701,84.4038089 55.5338181,84.3741385 C55.5450661,84.3444681 55.5723387,84.3018505 55.5945265,84.2794243 C55.6166373,84.2570751 55.634742,84.2050555 55.634742,84.1638252 C55.634742,84.1178938 55.6525385,84.088994 55.6809667,84.088994 C55.7117831,84.088994 55.7271913,84.0581676 55.7271913,83.9965148 C55.7271913,83.9367886 55.7428307,83.9040355 55.7713359,83.9040355 C55.7956038,83.9040355 55.8238779,83.8776018 55.8341244,83.8452341 C55.8443709,83.8128663 55.8731072,83.778649 55.8978374,83.7691699 C55.9226446,83.7596137 55.9429064,83.7182292 55.9429064,83.6770759 C55.9429064,83.6359997 55.9637075,83.594384 55.9891311,83.5845966 C56.0145547,83.5748863 56.0353558,83.5388194 56.0353558,83.504525 C56.0353558,83.4702306 56.0630906,83.4248387 56.0969887,83.4036455 C56.1308867,83.3824523 56.1586215,83.3491598 56.1586215,83.3296621 C56.1586215,83.3100873 56.1794226,83.2861197 56.2048462,83.2763324 C56.2318876,83.2660055 56.2510709,83.2197659 56.2510709,83.1652031 C56.2510709,83.1026254 56.2664021,83.0717219 56.2972955,83.0717219 C56.3295758,83.0717219 56.3435202,83.0392001 56.3435202,82.9638294 C56.3435202,82.8911561 56.3577728,82.855937 56.3872796,82.855937 C56.4113934,82.855937 56.4399757,82.8152461 56.4509155,82.7656155 C56.4618554,82.7159079 56.4906687,82.6587249 56.5150137,82.6385336 C56.5393587,82.6183423 56.5592353,82.570253 56.5592353,82.5317971 C56.5592353,82.493264 56.5800364,82.4538062 56.60546,82.4440188 C56.6308836,82.4343085 56.6516847,82.3911515 56.6516847,82.3483028 C56.6516847,82.305377 56.6794194,82.242491 56.7133175,82.208582 C56.7472156,82.1746729 56.7754127,82.1226533 56.775952,82.0929829 C56.7764912,82.0633124 56.7972923,82.0121406 56.8221766,81.9792334 C56.8470609,81.9462491 56.8673998,81.8803576 56.8673998,81.8328078 C56.8673998,81.7763955 56.8835013,81.7461856 56.9136244,81.7461856 C56.9478307,81.7461856 56.9598491,81.7103498 56.9598491,81.6085456 C56.9598491,81.5025027 56.9739476,81.4633531 57.021482,81.4379213 C57.0593862,81.4176529 57.0835001,81.3726463 57.0841164,81.3212433 C57.0846557,81.2752348 57.1054568,81.2106535 57.1303411,81.1777462 C57.1552253,81.144762 57.1755642,81.0719345 57.1755642,81.0159075 C57.1755642,80.9457774 57.1900479,80.913872 57.2217889,80.913872 C57.2566885,80.913872 57.2680135,80.8761867 57.2680135,80.7597399 C57.2680135,80.6485336 57.2799549,80.6056078 57.3109254,80.6056078 C57.3630823,80.6056078 57.3912793,80.5390997 57.3912793,80.4159482 C57.3912793,80.3652387 57.4120804,80.3029693 57.437504,80.2775375 C57.4683204,80.2467111 57.4837286,80.169645 57.4837286,80.0467246 C57.4837286,79.9452286 57.4961323,79.8697809 57.5113094,79.879183 C57.5531427,79.9050772 57.576178,79.8172989 57.576178,79.6320321 C57.576178,79.5104219 57.5877341,79.4650299 57.6187817,79.4650299 C57.6701681,79.4650299 57.6984422,79.3710864 57.6990585,79.1986126 C57.6992897,79.1138399 57.715006,79.0649029 57.7456684,79.0531118 C57.78234,79.0390858 57.7918931,78.974042 57.7918931,78.7393759 C57.7918931,78.5173485 57.8034492,78.4318052 57.8381177,78.3971254 C57.8727862,78.3624457 57.8843424,78.2769794 57.8843424,78.055954 C57.8843424,77.8105756 57.8934333,77.7543174 57.9382712,77.7214872 C57.9883479,77.6848808 57.9926622,77.564966 57.9981321,76.0534692 C58.0041413,74.3760492 57.9993648,74.2553637 57.9269461,74.2553637 C57.8935873,74.2553637 57.8843424,74.1898576 57.8843424,73.9529565 C57.8843424,73.7348595 57.8717077,73.63398 57.8391193,73.590746 C57.8076095,73.5491303 57.793588,73.449638 57.7928946,73.2634464 C57.7922012,73.0824952 57.778565,72.9825406 57.7507531,72.9547197 C57.728103,72.9320623 57.7010616,72.8314911 57.6907381,72.731151 C57.6786426,72.6136253 57.654914,72.5392565 57.6240205,72.5219937 C57.5891209,72.5024189 57.576178,72.4454671 57.576178,72.3108327 C57.576178,72.1753506 57.5639284,72.1217126 57.5299533,72.1086884 C57.4972879,72.0961266 57.4837286,72.0451089 57.4837286,71.9348274 C57.4837286,71.8439665 57.4655469,71.7583461 57.4402004,71.7299857 C57.4163177,71.7032438 57.3928972,71.6258695 57.3882747,71.5580513 C57.3791838,71.425806 57.3395847,71.3478922 57.2953631,71.3752506 C57.2803401,71.3845756 57.2680135,71.3284715 57.2680135,71.2506348 C57.2680135,71.1533004 57.2536068,71.1035927 57.2217889,71.0914163 C57.1918969,71.0799335 57.1755642,71.0321525 57.1755642,70.9558571 C57.1755642,70.8910445 57.1547631,70.8172152 57.1293395,70.7917834 C57.103916,70.7663516 57.0831149,70.7104017 57.0831149,70.6673988 C57.0831149,70.6207738 57.0582306,70.5758443 57.021482,70.5561925 C56.9739476,70.5307607 56.9598491,70.4916111 56.9598491,70.3855682 C56.9598491,70.2837639 56.9478307,70.2479282 56.9136244,70.2479282 C56.8814983,70.2479282 56.8673998,70.2155604 56.8673998,70.1418853 C56.8673998,70.0835463 56.852916,70.0268256 56.8352736,70.0159593 C56.8176312,70.0050159 56.7814219,69.9417447 56.7549197,69.8753908 C56.7283406,69.8090369 56.6942884,69.7547054 56.6791883,69.7547054 C56.6640112,69.7547054 56.6516847,69.7126273 56.6516847,69.6612242 C56.6516847,69.6066614 56.6325014,69.5604218 56.60546,69.5500949 C56.5800364,69.5403075 56.5592353,69.5001561 56.5592353,69.4607754 C56.5592353,69.4213946 56.5391276,69.3690667 56.5145515,69.3444827 C56.4899754,69.3198986 56.4609309,69.264411 56.4501451,69.221177 C56.4392823,69.17802 56.4108541,69.1351712 56.3869714,69.1259233 C56.3627805,69.1166754 56.3435202,69.0678155 56.3435202,69.015873 C56.3435202,68.9532953 56.328189,68.9223918 56.2972955,68.9223918 C56.2673266,68.9223918 56.2510709,68.892336 56.2510709,68.8367714 C56.2510709,68.789684 56.2268029,68.7277229 56.1971421,68.6991314 C56.0670197,68.5735908 56.0353558,68.5278135 56.0353558,68.4650818 C56.0353558,68.4263175 56.0160185,68.3983426 55.9891311,68.3983426 C55.9637075,68.3983426 55.9429064,68.3716006 55.9429064,68.3389246 C55.9429064,68.3061715 55.9221053,68.2586218 55.8966818,68.23319 C55.8712582,68.2077582 55.8504571,68.172616 55.8504571,68.155045 C55.8504571,68.1374739 55.8227223,68.1081888 55.7888242,68.0900783 C55.7484547,68.0684998 55.7271913,68.0254969 55.7271913,67.9656936 C55.7271913,67.9135199 55.7106275,67.873985 55.6886708,67.8735226 C55.6506125,67.8726749 55.5217997,67.6338472 55.5352819,67.5891488 C55.539134,67.5764329 55.5145579,67.566029 55.4806598,67.566029 C55.4403673,67.566029 55.4190269,67.5454524 55.4190269,67.5066111 C55.4190269,67.473858 55.3982258,67.4263082 55.3728022,67.4008764 C55.3473787,67.3754446 55.3263464,67.343231 55.3260383,67.3293591 C55.3252679,67.2923674 55.185053,67.1652855 55.1450687,67.1652855 C55.1262707,67.1652855 55.1108625,67.125134 55.1108625,67.07612 C55.1108625,67.0252564 55.0909858,66.979325 55.0646378,66.9691523 C55.0392142,66.959442 55.0184131,66.9301569 55.0184131,66.9042627 C55.0184131,66.8782914 54.9992299,66.8570212 54.9758094,66.8570212 C54.9523119,66.8570212 54.9258868,66.8292774 54.917027,66.7953683 C54.9081673,66.7614593 54.8788146,66.7337155 54.8517732,66.7337155 C54.8198011,66.7337155 54.802698,66.7065112 54.802698,66.6556475 C54.802698,66.6127988 54.7818969,66.5696418 54.7564734,66.5599315 C54.7310498,66.5501441 54.7102487,66.5304152 54.7102487,66.5160038 C54.7102487,66.4802452 54.5603267,66.3329719 54.5239633,66.3329719 C54.5077846,66.3329719 54.4945336,66.3121641 54.4945336,66.2867323 C54.4945336,66.2613005 54.4737325,66.2404926 54.4483089,66.2404926 C54.4228853,66.2404926 54.4020842,66.2192224 54.4020842,66.1932511 C54.4020842,66.1673569 54.3812831,66.1380718 54.3558596,66.1283615 C54.330436,66.1185741 54.3096349,66.0967644 54.3096349,66.0798099 C54.3096349,66.0628554 54.2748123,66.021625 54.2322856,65.9881783 C54.1897589,65.9546546 54.1611767,65.9172005 54.1688038,65.9048699 C54.1764308,65.8926164 54.1349057,65.8427547 54.0766626,65.794126 C54.0183425,65.7454973 53.970654,65.6873124 53.970654,65.6648091 C53.970654,65.6423829 53.9498529,65.6239641 53.9244294,65.6239641 C53.8990058,65.6239641 53.8782047,65.6107087 53.8782047,65.5944478 C53.8782047,65.551522 53.6476207,65.3156998 53.6056333,65.3156998 C53.5860648,65.3156998 53.5698091,65.29836 53.569501,65.2771668 C53.5688846,65.2301565 53.4358346,65.0999148 53.3885314,65.0999148 C53.3697334,65.0999148 53.3543252,65.079107 53.3543252,65.0536752 C53.3543252,65.0282434 53.3335241,65.0074355 53.3081005,65.0074355 C53.2826769,65.0074355 53.2618758,64.9866277 53.2618758,64.9611959 C53.2618758,64.9357641 53.2417681,64.9149563 53.217192,64.9149563 C53.1926159,64.9149563 53.1614142,64.8976164 53.147855,64.8764232 C53.1151895,64.8254055 52.9339889,64.6991713 52.8933112,64.6991713 C52.8756687,64.6991713 52.8610309,64.6818314 52.8607228,64.6606382 C52.8601064,64.6136279 52.7270564,64.4833863 52.6797532,64.4833863 C52.6609552,64.4833863 52.6455469,64.4625784 52.6455469,64.4371466 C52.6455469,64.4117148 52.6247458,64.390907 52.5993223,64.390907 C52.5738987,64.390907 52.5530976,64.3700992 52.5530976,64.3446674 C52.5530976,64.3192356 52.5402317,64.2984277 52.5245154,64.2984277 C52.5087219,64.2984277 52.4715881,64.2741519 52.4419273,64.2444815 C52.3880756,64.1906123 52.3779832,64.1862195 52.2911578,64.1789753 C52.2657343,64.1768945 52.2449332,64.1543142 52.2449332,64.1288824 C52.2449332,64.1034506 52.2322214,64.0826427 52.2167361,64.0826427 C52.2012509,64.0826427 52.1386164,64.0340911 52.0775228,63.9747502 C52.0164292,63.9154094 51.9404667,63.8668577 51.9087258,63.8668577 C51.8769078,63.8668577 51.8429327,63.8460499 51.8331484,63.8206181 C51.8234413,63.7951863 51.7941656,63.7743785 51.7682798,63.7743785 C51.742317,63.7743785 51.7210536,63.7535706 51.7210536,63.7281388 C51.7210536,63.702707 51.7035653,63.6818992 51.6822249,63.6818992 C51.6608845,63.6818992 51.626139,63.6541554 51.6049527,63.6202463 C51.58315,63.5854125 51.5330733,63.5585935 51.4896992,63.5585935 C51.4419337,63.5585935 51.4128892,63.5410995 51.4128892,63.5123538 C51.4128892,63.486922 51.3920881,63.4661142 51.3666645,63.4661142 C51.341241,63.4661142 51.2927051,63.4383704 51.258807,63.4044613 C51.2249089,63.3705523 51.176373,63.3428085 51.1509494,63.3428085 C51.1255258,63.3428085 51.1047247,63.3220006 51.1047247,63.2965688 C51.1047247,63.2657424 51.0739083,63.2503292 51.0122754,63.2503292 C50.9506425,63.2503292 50.9198261,63.234916 50.9198261,63.2040896 C50.9198261,63.1784266 50.8923994,63.1578499 50.8581932,63.1578499 C50.8242951,63.1578499 50.7965603,63.1376586 50.7965603,63.1129975 C50.7965603,63.0861785 50.7532632,63.0600531 50.6887028,63.0479537 C50.6269158,63.0363167 50.5808452,63.0094207 50.5808452,62.9848366 C50.5808452,62.959636 50.5488731,62.9420649 50.5028026,62.9420649 C50.4599677,62.9420649 50.4168247,62.9212571 50.4071175,62.8958253 C50.3973333,62.8703935 50.363127,62.8495856 50.3310009,62.8495856 C50.2989518,62.8495856 50.2726808,62.8298567 50.2726808,62.8058121 C50.2726808,62.7816904 50.2322342,62.7530989 50.1827738,62.7422326 C50.1333904,62.7313663 50.0852397,62.7025436 50.0759178,62.6781907 C50.0664417,62.6535296 50.0187533,62.6338006 49.9687536,62.6338006 C49.917136,62.6338006 49.8710655,62.6140717 49.860896,62.587561 C49.8505725,62.5605108 49.8043479,62.5413214 49.7498027,62.5413214 C49.6910204,62.5413214 49.6563519,62.5255999 49.6563519,62.498935 C49.6563519,62.475584 49.6139793,62.4480714 49.5621306,62.4376675 C49.5102819,62.4273406 49.4468771,62.3978243 49.4212224,62.3721613 C49.3955677,62.3464983 49.3495742,62.3255364 49.3189118,62.3255364 C49.2883265,62.3255364 49.2460309,62.3047285 49.2249217,62.2792967 C49.2038124,62.2538649 49.1592056,62.2330571 49.1258468,62.2330571 C49.092488,62.2330571 49.0299306,62.2053133 48.9867876,62.1714042 C48.9437216,62.1374952 48.8773122,62.1097514 48.8393309,62.1097514 C48.8013496,62.1097514 48.7529678,62.0889435 48.7318586,62.0635117 C48.710133,62.0373863 48.6429531,62.0172721 48.5773141,62.0172721 C48.5024301,62.0172721 48.4548187,62.000857 48.4433396,61.9710325 C48.4322457,61.9419786 48.3850965,61.9247928 48.3168381,61.9247928 C48.2447276,61.9247928 48.207979,61.9103815 48.207979,61.8821753 C48.207979,61.8379394 48.1178409,61.8026431 48.0032808,61.8018724 C47.9669174,61.8016412 47.9292443,61.7806793 47.9194601,61.7552475 C47.9073646,61.7235733 47.8578272,61.7090078 47.7621421,61.7090078 C47.6585218,61.7090078 47.6224666,61.6970626 47.6224666,61.6627682 C47.6224666,61.6283967 47.5861802,61.6165285 47.4809421,61.6165285 C47.3861045,61.6165285 47.3136088,61.5961831 47.2610667,61.5548757 C47.2076773,61.5128747 47.136029,61.4932228 47.0361067,61.4932228 C46.9341813,61.4932228 46.8840275,61.4791197 46.871701,61.4469832 C46.858681,61.41292 46.8049063,61.4007436 46.6681584,61.4007436 C46.5234752,61.4007436 46.4822582,61.3904938 46.4822582,61.3545039 C46.4822582,61.3182058 46.4396544,61.3082643 46.2834921,61.3082643 C46.1288706,61.3082643 46.0782546,61.2967044 46.0555275,61.2561676 C46.0323381,61.2147061 45.9674695,61.2012966 45.7381181,61.1906615 C45.5637741,61.1826466 45.4258705,61.1606057 45.3891219,61.1349427 C45.3475967,61.1058888 45.2328825,61.0924793 45.0270286,61.0924793 C44.7797267,61.0924793 44.7257209,61.0841561 44.7257209,61.0462396 C44.7257209,61.0057029 44.5133956,61 43,61 C41.4866044,61 41.2742791,61.0057029 41.2742791,61.0462396" id="Logo"></path>
        </g>
    </g>
</svg>